<?xml version="1.0" encoding="UTF-8" standalone="no"?>
<!DOCTYPE svg PUBLIC "-//W3C//DTD SVG 1.1//EN" "http://www.w3.org/Graphics/SVG/1.1/DTD/svg11.dtd">
<svg width="100%" height="100%" viewBox="0 0 63 89" version="1.1" xmlns="http://www.w3.org/2000/svg" xmlns:xlink="http://www.w3.org/1999/xlink" xml:space="preserve" xmlns:serif="http://www.serif.com/" style="fill-rule:evenodd;clip-rule:evenodd;stroke-linejoin:round;stroke-miterlimit:2;">
    <g id="Ebene-1" serif:id="Ebene 1" transform="matrix(1,0,0,1,-77.091,-812.75)">
        <path id="path4665" d="M100.07,882.64C103.004,882.533 105.896,885.67 104.306,888.337C102.914,890.673 101.367,893.095 102.174,895.994C102.959,898.815 105.46,900.89 108.457,900.89C111.453,900.89 113.954,898.81 114.74,895.988C115.547,893.089 113.999,890.673 112.607,888.337C111.017,885.67 113.909,882.532 116.843,882.64C123.507,882.884 130.034,884.466 136.615,885.414C137.55,878.786 139.126,872.213 139.368,865.502C139.475,862.545 136.362,859.631 133.714,861.233C131.396,862.636 128.993,864.194 126.116,863.382C123.316,862.59 121.257,860.07 121.257,857.051C121.257,854.031 123.321,851.511 126.122,850.72C128.999,849.906 131.396,851.465 133.714,852.868C136.362,854.471 139.475,851.557 139.368,848.6C139.126,841.885 137.556,835.308 136.618,828.673C130.035,829.617 123.507,831.205 116.843,831.449C113.909,831.557 111.017,828.42 112.607,825.752C113.999,823.416 115.546,820.995 114.74,818.096C113.954,815.273 111.453,813.193 108.457,813.193C105.46,813.193 102.959,815.274 102.174,818.096C101.367,820.994 102.914,823.416 104.306,825.752C105.896,828.42 103.004,831.557 100.07,831.449C93.41,831.205 86.887,829.617 80.307,828.673C79.37,835.307 77.793,841.885 77.551,848.6C77.445,851.557 80.558,854.471 83.205,852.868C85.523,851.465 87.926,849.906 90.803,850.72C93.604,851.511 95.668,854.031 95.668,857.051C95.668,860.07 93.603,862.591 90.803,863.382C87.927,864.194 85.523,862.636 83.205,861.233C80.558,859.63 77.445,862.545 77.551,865.502C77.793,872.213 79.369,878.787 80.307,885.417C86.887,884.472 93.41,882.884 100.07,882.64L100.07,882.64Z" style="fill:rgb(66,187,131);fill-rule:nonzero;"/>
    </g>
</svg>
